<?xml version="1.0" encoding="UTF-8"?>
<svg xmlns="http://www.w3.org/2000/svg" width="165" height="31" viewBox="0 0 165 31" fill="none">
  <g clip-path="url(#clip0_7202_14409)">
    <path d="M126.332 12.7132C127.288 10.9475 128.59 9.57495 130.242 8.5955C131.893 7.61604 133.717 7.12631 135.715 7.12631C137.514 7.12631 139.093 7.47769 140.438 8.18263C141.782 8.88538 142.857 9.76162 143.663 10.8092V7.49745H148.448V30.3016H143.663V26.9065C142.857 27.9848 141.762 28.8786 140.376 29.5967C138.989 30.3148 137.408 30.675 135.633 30.675C133.664 30.675 131.862 30.1721 130.226 29.1641C128.588 28.1583 127.292 26.7506 126.336 24.9432C125.38 23.1358 124.901 21.0869 124.901 18.7963C124.901 16.5058 125.38 14.4788 126.336 12.7132H126.332ZM142.683 14.7819C142.029 13.6223 141.177 12.7395 140.124 12.1334C139.071 11.5251 137.932 11.222 136.713 11.222C135.494 11.222 134.355 11.5207 133.3 12.1136C132.244 12.7066 131.392 13.574 130.741 14.7204C130.089 15.8646 129.763 17.2239 129.763 18.7963C129.763 20.3687 130.089 21.7501 130.741 22.9382C131.392 24.1218 132.253 25.0266 133.322 25.6481C134.388 26.2718 135.521 26.5815 136.713 26.5815C137.905 26.5815 139.069 26.2784 140.124 25.6701C141.177 25.064 142.029 24.1746 142.683 23.0018C143.332 21.8291 143.661 20.4566 143.661 18.8842C143.661 17.3118 143.332 15.9458 142.683 14.7863V14.7819Z" fill="#1A324B"></path>
    <path d="M43.4706 8.56695C44.8991 9.31143 46.0141 10.4161 46.8199 11.8787C47.6258 13.3413 48.0276 15.1069 48.0276 17.1778V30.6289H43.3249V17.8806C43.3249 15.8404 42.8127 14.2746 41.786 13.1831C40.7593 12.0939 39.3574 11.547 37.5822 11.547C35.8071 11.547 34.3985 12.0917 33.3608 13.1831C32.3231 14.2746 31.7999 15.8404 31.7999 17.8806V30.6289H27.0574V7.82248H31.7999V10.4292C32.5748 9.49151 33.5684 8.76021 34.7738 8.23534C35.9793 7.71048 37.2643 7.44914 38.6221 7.44914C40.4238 7.44914 42.0399 7.82248 43.4684 8.56695H43.4706Z" fill="#1A324B"></path>
    <path d="M84.0135 8.50545C85.4155 7.80051 86.9742 7.44914 88.6964 7.44914C90.721 7.44914 92.5513 7.93447 94.1873 8.89855C95.8255 9.86483 97.1149 11.2374 98.0577 13.0162C99.0004 14.7973 99.4729 16.8308 99.4729 19.1192C99.4729 21.4075 99.0004 23.4586 98.0577 25.266C97.1149 27.0734 95.8167 28.4811 94.1674 29.4869C92.516 30.4949 90.6923 30.9978 88.6942 30.9978C86.919 30.9978 85.3448 30.6508 83.9715 29.9612C82.596 29.2717 81.5098 28.3888 80.7039 27.3128V30.6245H75.9614V0H80.7039V11.2154C81.5098 10.113 82.6115 9.2082 84.0113 8.50545H84.0135ZM93.6685 15.0432C93.0149 13.8991 92.1539 13.0294 91.0875 12.4365C90.0189 11.8435 88.8752 11.5448 87.6565 11.5448C86.4377 11.5448 85.3316 11.8479 84.2652 12.4562C83.1966 13.0623 82.3355 13.9452 81.6842 15.1047C81.0329 16.2642 80.7061 17.6302 80.7061 19.2026C80.7061 20.775 81.0329 22.1476 81.6842 23.3203C82.3355 24.4952 83.1966 25.3824 84.2652 25.9885C85.3316 26.5968 86.4642 26.8999 87.6565 26.8999C88.8487 26.8999 90.0189 26.5903 91.0875 25.9666C92.1539 25.3451 93.0149 24.4425 93.6685 23.2566C94.3198 22.0707 94.6465 20.6894 94.6465 19.1148C94.6465 17.5402 94.3198 16.183 93.6685 15.0388V15.0432Z" fill="#1A324B"></path>
    <path d="M159.427 11.6722V24.2953C159.427 25.1518 159.628 25.7645 160.03 26.1357C160.43 26.509 161.119 26.6957 162.09 26.6957H165.002V30.6267H161.258C159.123 30.6267 157.484 30.1303 156.347 29.1355C155.208 28.1429 154.643 26.5288 154.643 24.2931V11.67H151.938V7.82027H154.643V2.15436H159.427V7.82466H165V11.6744H159.427V11.6722Z" fill="#1A324B"></path>
    <path d="M5.24373 22.5956C3.71589 19.6221 4.3915 15.8843 7.07626 13.6575C9.76101 11.4307 13.5806 11.4416 16.2455 13.4708L19.7096 10.5983C15.4242 6.72004 8.8006 6.46749 4.22812 10.2601C-0.344359 14.0506 -1.28491 20.5774 1.78181 25.4681L5.24594 22.5956H5.24373Z" fill="#1A324B"></path>
    <path d="M18.3209 15.9436C19.8487 18.9171 19.1731 22.6571 16.4884 24.8817C13.8036 27.1085 9.984 27.0976 7.31911 25.0684L3.85498 27.9409C8.14044 31.8192 14.764 32.0717 19.3365 28.2791C23.909 24.4864 24.8495 17.9596 21.7828 13.0689L18.3187 15.9414L18.3209 15.9436Z" fill="#FD604A"></path>
    <path d="M55.6534 17.1756C55.5673 17.8257 55.5253 18.502 55.5253 19.2026C55.5253 19.8153 55.543 20.4083 55.6092 20.9836C55.7483 22.8042 56.4262 24.2668 57.6471 25.3692C58.868 26.4739 60.3672 27.0251 62.1423 27.0251C64.6946 27.0251 66.4984 25.9622 67.5516 23.8385H72.6694C71.9761 25.9358 70.7198 27.6532 68.905 28.9906C67.0879 30.3302 64.8315 31 62.1423 31C59.9499 31 57.9871 30.5103 56.2539 29.5308C54.5208 28.5514 53.1607 27.1722 52.1782 25.3912C51.1935 23.6102 50.7012 21.5502 50.7012 19.2048C50.7012 16.8594 51.1803 14.7972 52.1363 13.0184C53.0923 11.2396 54.4391 9.86702 56.1722 8.90074C57.9054 7.93666 59.8947 7.45132 62.1423 7.45132C64.3899 7.45132 66.2335 7.92129 67.9269 8.85902C69.6181 9.79894 70.934 11.1144 71.879 12.812C72.8217 14.5096 73.2942 16.4619 73.2942 18.669C73.2942 19.5254 73.2368 20.2984 73.1286 20.988H58.8173V17.18H68.3442C68.3177 15.4429 67.6929 14.0484 66.4719 12.9986C65.251 11.9489 63.7408 11.4262 61.9348 11.4262C60.2987 11.4262 58.899 11.9445 57.7332 12.9789C56.5675 14.0154 55.8742 15.4143 55.6534 17.18" fill="#1A324B"></path>
    <path d="M103.952 16.7243C103.866 17.3743 103.824 18.0507 103.824 18.7513C103.824 19.364 103.842 19.9569 103.908 20.5323C104.047 22.3529 104.725 23.8155 105.946 24.9179C107.167 26.0225 108.666 26.5737 110.441 26.5737C112.993 26.5737 114.797 25.5108 115.85 23.3872H120.968C120.275 25.4845 119.019 27.2018 117.204 28.5392C115.387 29.8789 113.13 30.5487 110.441 30.5487C108.249 30.5487 106.286 30.0589 104.553 29.0795C102.82 28.1 101.46 26.7209 100.477 24.9399C99.4946 23.1588 99 21.0989 99 18.7535C99 16.408 99.4791 14.3459 100.435 12.5671C101.391 10.7883 102.738 9.4157 104.471 8.44942C106.204 7.48534 108.194 7 110.441 7C112.689 7 114.532 7.46996 116.226 8.40769C117.917 9.34762 119.233 10.6631 120.178 12.3607C121.121 14.0582 121.593 16.0106 121.593 18.2176C121.593 19.0741 121.536 19.8471 121.427 20.5367H107.116V16.7287H116.643C116.617 14.9916 115.992 13.5971 114.771 12.5473C113.55 11.4976 112.04 10.9749 110.234 10.9749C108.598 10.9749 107.198 11.4932 106.032 12.5276C104.866 13.5641 104.173 14.963 103.952 16.7287" fill="#1A324B"></path>
  </g>
  <defs>
    <clipPath id="clip0_7202_14409">
      <rect width="165" height="31" fill="white"></rect>
    </clipPath>
  </defs>
</svg>
